<?xml version="1.0" encoding="utf-8"?>
<!-- Generator: Adobe Illustrator 16.0.0, SVG Export Plug-In . SVG Version: 6.00 Build 0)  -->
<!DOCTYPE svg PUBLIC "-//W3C//DTD SVG 1.1//EN" "http://www.w3.org/Graphics/SVG/1.1/DTD/svg11.dtd">
<svg version="1.1" id="Layer_1" xmlns="http://www.w3.org/2000/svg" xmlns:xlink="http://www.w3.org/1999/xlink" x="0px" y="0px"
	 width="360px" height="360px" viewBox="0 0 360 360" enable-background="new 0 0 360 360" xml:space="preserve">
<g>
	<circle fill="#FFFFFF" cx="224.744" cy="107.152" r="18.666"/>
	<polygon fill="#FFFFFF" points="187.717,88.486 166.865,88.486 124.908,189.307 145.76,189.307 	"/>
	<polygon fill="#FFFFFF" points="154.025,189.307 162.238,189.307 204.195,88.486 195.982,88.486 	"/>
	<path fill="#FFFFFF" d="M97.209,234.163c-3.25,0-7,2.6-8.9,6.9v-4.851c0-1.101-0.85-1.95-1.951-1.95c-1.049,0-1.9,0.9-1.9,1.95
		v22.451c0,1.101,0.852,1.95,1.951,1.95s1.9-0.9,1.9-1.95v-8.801c0-7.45,4.1-11.2,9.1-11.801c1-0.149,1.701-0.899,1.701-1.95
		C99.109,235.013,98.359,234.163,97.209,234.163z"/>
	<path fill="#FFFFFF" d="M121.709,233.963c-7.15,0-12.4,6-12.4,13.45v0.101c0,8,5.801,13.45,12.9,13.45c4.4,0,7.301-1.55,9.75-3.899
		c0.4-0.351,0.6-0.801,0.6-1.25c0-0.9-0.75-1.65-1.699-1.65c-0.449,0-0.801,0.2-1.1,0.45c-1.9,1.75-4.25,3-7.451,3
		c-4.6,0-8.551-3.15-9.1-8.751h18.701c0.949,0,1.799-0.75,1.799-1.8C133.709,240.213,129.359,233.963,121.709,233.963z
		 M113.209,246.014c0.5-5.051,3.9-8.801,8.4-8.801c5.15,0,7.85,4.101,8.25,8.801H113.209z"/>
	<path fill="#FFFFFF" d="M157.258,245.613c-3.449-1.05-6.65-2-6.65-4.45v-0.1c0-2.15,1.951-3.751,5-3.751
		c2.201,0,4.551,0.75,6.752,2c0.199,0.101,0.5,0.2,0.85,0.2c0.949,0,1.699-0.75,1.699-1.649c0-0.75-0.449-1.301-0.949-1.601
		c-2.5-1.35-5.5-2.2-8.25-2.2c-5.102,0-8.801,2.95-8.801,7.4v0.101c0,4.75,4.5,6.15,8.551,7.3c3.398,0.95,6.449,1.95,6.449,4.551
		v0.1c0,2.5-2.25,4.101-5.35,4.101c-2.801,0-5.551-0.95-8.201-2.75c-0.25-0.2-0.6-0.301-0.949-0.301c-0.951,0-1.701,0.75-1.701,1.65
		c0,0.65,0.35,1.15,0.701,1.4c2.799,2,6.549,3.25,9.949,3.25c5.15,0,9.201-2.851,9.201-7.75v-0.101
		C165.559,248.363,161.258,246.813,157.258,245.613z"/>
	<path fill="#FFFFFF" d="M191.408,237.913c0.951,0,1.75-0.75,1.75-1.7c0-0.9-0.799-1.7-1.75-1.7h-6.699v-6.101
		c0-1.05-0.9-1.95-1.951-1.95c-1.1,0-1.9,0.9-1.9,1.95v6.101h-2.1c-0.9,0-1.699,0.75-1.699,1.7c0,0.9,0.799,1.7,1.699,1.7h2.1
		v15.601c0,5.251,3.15,7.301,7.301,7.301c1.5,0,2.701-0.25,3.801-0.7c0.65-0.25,1.1-0.8,1.1-1.5c0-0.9-0.75-1.65-1.65-1.65
		c-0.299,0-1,0.351-2.35,0.351c-2.6,0-4.35-1.15-4.35-4.301v-15.101H191.408z"/>
	<path fill="#FFFFFF" d="M209.258,234.263c-1.051,0-1.9,0.9-1.9,1.95v22.451c0,1.101,0.85,1.95,1.949,1.95s1.9-0.85,1.9-1.95
		v-22.451C211.207,235.112,210.357,234.263,209.258,234.263z"/>
	<path fill="#FFFFFF" d="M209.258,224.362c-1.25,0-2.252,0.8-2.252,2.05v0.65c0,1.2,1.002,2.05,2.252,2.05
		c1.299,0,2.299-0.85,2.299-2.05v-0.65C211.557,225.162,210.557,224.362,209.258,224.362z"/>
	<path fill="#FFFFFF" d="M237.207,227.013c0.75,0,1.451,0.149,2.102,0.25c1,0.1,1.85-0.65,1.85-1.65c0-0.851-0.65-1.5-1.4-1.65
		c-0.85-0.2-1.801-0.3-3.051-0.3c-2.35,0-4.25,0.7-5.551,2c-1.449,1.45-2.25,3.7-2.25,6.65v2.25h-2.1c-0.9,0-1.65,0.75-1.65,1.65
		c0,0.95,0.701,1.7,1.65,1.7h2.1v20.751c0,1.05,0.852,1.95,1.951,1.95s1.9-0.9,1.9-1.95v-20.751h6.65c0.949,0,1.699-0.75,1.699-1.65
		c0-0.95-0.75-1.65-1.699-1.65h-6.701v-2.1C232.707,228.812,234.207,227.013,237.207,227.013z"/>
	<path fill="#FFFFFF" d="M273.908,234.263c-1,0-1.551,0.65-1.852,1.45l-8,20.352l-9-20.302c-0.35-0.85-0.9-1.5-1.951-1.5
		c-1.1,0-1.949,0.85-1.949,1.9c0,0.35,0.1,0.7,0.25,1.05l10.801,22.901l-0.199,0.4c-1.4,3.149-2.801,4.599-5.201,4.599
		c-1.301,0-2.051-0.199-2.801-0.449c-0.299-0.1-0.6-0.199-0.949-0.199c-0.85,0-1.65,0.699-1.65,1.648c0,0.9,0.6,1.4,1.199,1.65
		c1.301,0.451,2.551,0.75,4.252,0.75c3.9,0,6.4-1.949,8.65-7.3l10.1-24.101c0.1-0.301,0.201-0.65,0.201-0.95
		C275.809,235.112,274.957,234.263,273.908,234.263z"/>
</g>
</svg>
